<?xml version="1.0" encoding="utf-8"?>
<svg viewBox="0 0 500 500" xmlns="http://www.w3.org/2000/svg">
  <g transform="matrix(0.434631, 0, 0, 0.459801, 21.199911, 3.595739)" style="">
    <g>
      <g>
        <path d="M909.7,747.8c-0.9,0.4-2,0.6-3.1,0.6c-0.1,0-0.1,0-0.2,0H128.1c-1,0-2-0.3-2.9-0.7l0,0c-3,0-5.8,1.8-7.1,4.5c-1.4,3.1-1.2,6.5,0.7,9.4c3.3,5.1,8.7,13.6,132.2,19.7c69.8,3.5,162.9,5.4,262,5.4c89,0,381-1.7,401.6-24.2c2-2.2,3-4.9,2.7-7.7C917,750.9,913.6,747.9,909.7,747.8z M572.3,771.9h-110c-2.5,0-4.6-2.1-4.6-4.6c0-2.6,2.1-4.6,4.6-4.6h110c2.5,0,4.6,2.1,4.6,4.6C576.9,769.8,574.8,771.9,572.3,771.9z" style="fill: rgb(255, 255, 255);"/>
        <path d="M125.2,740.1h784.4c0,0,0.1,0,0.1,0c2.7-1.2,4.6-3.9,4.6-7.1c0-2.2-0.9-4.2-2.4-5.6l-47.3-64.3c-1.5-2-3.7-3.1-6.2-3.1H178.3c-2.4,0-4.6,1.1-6.1,3L122,728.4c-1.8,2.3-2.1,5.5-0.8,8.1C122,738.2,123.5,739.4,125.2,740.1z M182.1,675.4h672.4l36.8,50H143.7L182.1,675.4z" style="fill: rgb(255, 255, 255);"/>
        <path d="M469.5,380.6c3.7-9.2,9-17.5,15.6-24.6c-10.9-10.4-25.6-16.8-41.9-16.8c-25.5,0-47.4,15.8-56.4,38.1c-26.6,6.5-46.3,30.4-46.3,59c0,33.6,27.2,60.8,60.8,60.8h16c-6-11.3-9.5-24.2-9.5-38C407.9,421.1,434.2,389.3,469.5,380.6z" style="fill: rgb(255, 255, 255);"/>
        <path d="M638.4,391.6c-11.5-30.6-41-52.4-75.6-52.4c-34,0-63,21-75,50.7c-35.3,8.7-61.6,40.5-61.6,78.5c0,44.7,36.2,80.9,80.9,80.9h106c44.7,0,80.9-36.2,80.9-80.9C693.9,432.6,670.6,402.2,638.4,391.6z" style="fill: rgb(255, 255, 255);"/>
        <path d="M926.6,302.7c2.1,15.6,15.3,27.7,31.5,27.7c17.6,0,31.9-14.3,31.9-31.9s-14.3-31.9-31.9-31.9c-16.1,0-29.4,12.1-31.5,27.7h-50.4V244c0-17-13.8-30.8-30.8-30.8H189.1c-17,0-30.8,13.8-30.8,30.8v63.8H68c-1.9-14.3-14-25.4-28.8-25.4c-16.1,0-29.2,13.1-29.2,29.2c0,16.1,13.1,29.2,29.2,29.2c14.8,0,26.9-11.1,28.8-25.4h90.3v54.2h-57.7C99,357.9,89.1,348.9,77,348.9c-13.2,0-23.9,10.7-23.9,23.9c0,13.2,10.7,23.9,23.9,23.9c12.1,0,22-9.1,23.6-20.7h57.7v248.5c0,17,13.8,30.8,30.8,30.8h656.3c17,0,30.8-13.8,30.8-30.8V375.7h42.1c1.6,12,11.8,21.3,24.2,21.3c13.5,0,24.5-11,24.5-24.5c0-13.5-11-24.5-24.5-24.5c-12.4,0-22.6,9.3-24.2,21.3h-42.1v-66.6L926.6,302.7L926.6,302.7z M958.1,275c12.9,0,23.5,10.5,23.5,23.5c0,13-10.5,23.5-23.5,23.5c-13,0-23.5-10.5-23.5-23.5C934.6,285.5,945.2,275,958.1,275z M39.2,333.1c-11.9,0-21.5-9.7-21.5-21.5c0-11.9,9.7-21.5,21.5-21.5s21.5,9.7,21.5,21.5C60.7,323.4,51.1,333.1,39.2,333.1z M77,390.4c-9.7,0-17.6-7.9-17.6-17.6c0-9.7,7.9-17.6,17.6-17.6s17.6,7.9,17.6,17.6C94.6,382.5,86.7,390.4,77,390.4z M942.5,354.4c10,0,18.1,8.1,18.1,18.1s-8.1,18.1-18.1,18.1s-18.1-8.1-18.1-18.1S932.6,354.4,942.5,354.4z M845.4,369.3h-51.3l-113.1,42.8l2.3,6l111.4-42.4h50.7l0,248.7H189.1V375.9h31.8l108.5,41.3l2.2-5.9l-110.2-41.7h-32.4v-54.2h26.1l132.7,50.5l2.7-7.2l-134.7-51h-26.8V244h656.3v50.3h-80.2l-147,55.7l3,7.8L766,302.7h79.4L845.4,369.3z" style="fill: rgb(255, 255, 255);"/>
      </g>
    </g>
    <g/>
    <g/>
    <g/>
    <g/>
    <g/>
    <g/>
    <g/>
    <g/>
    <g/>
    <g/>
    <g/>
    <g/>
    <g/>
    <g/>
    <g/>
  </g>
</svg>